{"asset":{"version":"2.0","generator":"babylon.js glTF exporter for 3dsmax 2021 v20210802.1"},"extensionsUsed":["KHR_lights_punctual"],"scene":0,"scenes":[{"nodes":[0,1,2,3,4,5,6,7,8,9,10,11,12]}],"nodes":[{"mesh":0,"name":"Object001"},{"mesh":1,"name":"Object002"},{"mesh":2,"name":"Object004"},{"mesh":3,"name":"Object005"},{"mesh":4,"name":"Object006"},{"translation":[-0.00143800525,0.07829767,3.42249962E-09],"rotation":[0.7071068,0.0,0.0,0.7071067],"name":"Spot001.Target"},{"translation":[-0.00143800525,0.07829767,3.42249962E-09],"rotation":[0.7071068,0.0,0.0,0.7071067],"name":"Spot002.Target"},{"translation":[-0.00143800525,0.07829767,3.42249962E-09],"rotation":[0.7071068,0.0,0.0,0.7071067],"name":"Spot003.Target"},{"translation":[-0.00143800525,0.07829767,3.42249962E-09],"rotation":[0.7071068,0.0,0.0,0.7071067],"name":"Spot004.Target"},{"translation":[-0.001964279,0.19414714,-0.2214307],"rotation":[-0.000283640431,-0.9710964,-0.238684773,0.00115399959],"scale":[1.0,1.0,0.99999994],"name":"Spot001","extensions":{"KHR_lights_punctual":{"light":0}}},{"translation":[0.263165474,0.13289,0.218559608],"rotation":[-0.0712809563,0.424799263,0.03357546,0.9018522],"scale":[0.99999994,1.0,0.99999994],"name":"Spot002","extensions":{"KHR_lights_punctual":{"light":1}}},{"translation":[-0.253168434,0.1661839,-0.08551993],"rotation":[-0.09257178,-0.8025826,-0.1292173,0.5749734],"scale":[0.99999994,0.99999994,1.0],"name":"Spot003","extensions":{"KHR_lights_punctual":{"light":2}}},{"translation":[-0.001964279,0.19414714,0.212089732],"rotation":[-0.247375548,-0.001202123,-0.000306915084,0.968919],"scale":[0.99999994,0.99999994,1.0],"name":"Spot004","extensions":{"KHR_lights_punctual":{"light":3}}}],"meshes":[{"primitives":[{"attributes":{"POSITION":1,"TANGENT":2,"NORMAL":3,"TEXCOORD_0":4},"indices":0,"material":0}],"name":"Object001"},{"primitives":[{"attributes":{"POSITION":6,"TANGENT":7,"NORMAL":8,"TEXCOORD_0":9},"indices":5,"material":0}],"name":"Object002"},{"primitives":[{"attributes":{"POSITION":11,"TANGENT":12,"NORMAL":13,"TEXCOORD_0":14},"indices":10,"material":0}],"name":"Object004"},{"primitives":[{"attributes":{"POSITION":16,"TANGENT":17,"NORMAL":18,"TEXCOORD_0":19},"indices":15,"material":1}],"name":"Object005"},{"primitives":[{"attributes":{"POSITION":21,"TANGENT":22,"NORMAL":23,"TEXCOORD_0":24},"indices":20,"material":0}],"name":"Object006"}],"accessors":[{"bufferView":0,"componentType":5125,"count":901254,"type":"SCALAR","name":"accessorIndices"},{"bufferView":1,"componentType":5126,"count":901254,"max":[0.115356006,0.078254804,0.0383833051],"min":[-0.115356006,0.0121216141,-0.0482044034],"type":"VEC3","name":"accessorPositions"},{"bufferView":2,"componentType":5126,"count":901254,"type":"VEC4","name":"accessorTangents"},{"bufferView":1,"byteOffset":10815048,"componentType":5126,"count":901254,"type":"VEC3","name":"accessorNormals"},{"bufferView":3,"componentType":5126,"count":901254,"type":"VEC2","name":"accessorUVs"},{"bufferView":0,"byteOffset":3605016,"componentType":5123,"count":3912,"type":"SCALAR","name":"accessorIndices"},{"bufferView":1,"byteOffset":21630096,"componentType":5126,"count":3912,"max":[0.11377801,0.0772843,0.0389670059],"min":[-0.11377801,0.0290000029,-0.0380000025],"type":"VEC3","name":"accessorPositions"},{"bufferView":2,"byteOffset":14420064,"componentType":5126,"count":3912,"type":"VEC4","name":"accessorTangents"},{"bufferView":1,"byteOffset":21677040,"componentType":5126,"count":3912,"type":"VEC3","name":"accessorNormals"},{"bufferView":3,"byteOffset":7210032,"componentType":5126,"count":3912,"type":"VEC2","name":"accessorUVs"},{"bufferView":0,"byteOffset":3612840,"componentType":5123,"count":28176,"type":"SCALAR","name":"accessorIndices"},{"bufferView":1,"byteOffset":21723984,"componentType":5126,"count":28176,"max":[0.106050014,0.0300000031,0.039],"min":[-0.106050014,0.00500000035,-0.039],"type":"VEC3","name":"accessorPositions"},{"bufferView":2,"byteOffset":14482656,"componentType":5126,"count":28176,"type":"VEC4","name":"accessorTangents"},{"bufferView":1,"byteOffset":22062096,"componentType":5126,"count":28176,"type":"VEC3","name":"accessorNormals"},{"bufferView":3,"byteOffset":7241328,"componentType":5126,"count":28176,"type":"VEC2","name":"accessorUVs"},{"bufferView":0,"byteOffset":3669192,"componentType":5123,"count":35328,"type":"SCALAR","name":"accessorIndices"},{"bufferView":1,"byteOffset":22400208,"componentType":5126,"count":35328,"max":[0.100934006,0.005261881,0.0370248035],"min":[-0.100934006,3.16816045E-06,-0.032619],"type":"VEC3","name":"accessorPositions"},{"bufferView":2,"byteOffset":14933472,"componentType":5126,"count":35328,"type":"VEC4","name":"accessorTangents"},{"bufferView":1,"byteOffset":22824144,"componentType":5126,"count":35328,"type":"VEC3","name":"accessorNormals"},{"bufferView":3,"byteOffset":7466736,"componentType":5126,"count":35328,"type":"VEC2","name":"accessorUVs"},{"bufferView":0,"byteOffset":3739848,"componentType":5123,"count":33192,"type":"SCALAR","name":"accessorIndices"},{"bufferView":1,"byteOffset":23248080,"componentType":5126,"count":33192,"max":[0.08136782,0.0463337,0.0395474],"min":[-0.0813678,0.0298726037,-0.0119443024],"type":"VEC3","name":"accessorPositions"},{"bufferView":2,"byteOffset":15498720,"componentType":5126,"count":33192,"type":"VEC4","name":"accessorTangents"},{"bufferView":1,"byteOffset":23646384,"componentType":5126,"count":33192,"type":"VEC3","name":"accessorNormals"},{"bufferView":3,"byteOffset":7749360,"componentType":5126,"count":33192,"type":"VEC2","name":"accessorUVs"}],"bufferViews":[{"buffer":0,"byteLength":3806232,"name":"bufferViewScalar"},{"buffer":0,"byteOffset":3806232,"byteLength":24044688,"byteStride":12,"name":"bufferViewFloatVec3"},{"buffer":0,"byteOffset":27850920,"byteLength":16029792,"byteStride":16,"name":"bufferViewFloatVec4"},{"buffer":0,"byteOffset":43880712,"byteLength":8014896,"byteStride":8,"name":"bufferViewFloatVec2"}],"buffers":[{"uri":"gerard.bin","byteLength":51895608}],"materials":[{"pbrMetallicRoughness":{"baseColorTexture":{"index":0},"metallicFactor":0.0,"roughnessFactor":0.599999964},"doubleSided":true,"name":"20 - Polished Aluminum","extras":{"babylonSeparateCullingPass":false}},{"pbrMetallicRoughness":{"baseColorFactor":[0.05,0.05,0.05,1.0],"metallicFactor":0.0,"roughnessFactor":0.630481},"doubleSided":true,"name":"18 - Rubber","extras":{"babylonSeparateCullingPass":false}}],"textures":[{"sampler":0,"source":0,"name":"FabricUpholsteryVelvetPolyester001_COL_VAR1_6K_SPECULAR.jpg"}],"images":[{"uri":"FabricUpholsteryVelvetPolyester001_COL_VAR1_6K_SPECULAR.jpg"}],"samplers":[{"magFilter":9729,"minFilter":9987}],"extensions":{"KHR_lights_punctual":{"lights":[{"type":"spot","spot":{"outerConeAngle":0.715585}},{"intensity":0.3,"type":"spot","spot":{"outerConeAngle":0.715585}},{"type":"spot","spot":{"outerConeAngle":0.715585}},{"type":"spot","spot":{"outerConeAngle":0.715585}}]}}}